<svg width="320" height="150" viewBox="0 0 320 150" fill="none" xmlns="http://www.w3.org/2000/svg">
<g clip-path="url(#clip0_56_5124)">
<path d="M87.5873 56.6395C88.3556 57.412 89.3346 57.9382 90.4004 58.1513C91.4661 58.3644 92.5709 58.2551 93.5748 57.837C94.5788 57.419 95.4369 56.711 96.0407 55.8027C96.6442 54.8942 96.9665 53.8262 96.9665 52.7337C96.9665 51.6413 96.6442 50.5732 96.0407 49.6649C95.4369 48.7565 94.5788 48.0486 93.5748 47.6304C92.5709 47.2123 91.4661 47.103 90.4004 47.3161C89.3346 47.5293 88.3556 48.0555 87.5873 48.8281C86.5569 49.8639 85.9781 51.2688 85.9781 52.7337C85.9781 54.1987 86.5569 55.6037 87.5873 56.6395Z" fill="#FF5678"/>
<path d="M66.1586 67.0705L32.1205 101.292C31.397 102.019 30.8231 102.882 30.4314 103.833C30.0399 104.783 29.8382 105.802 29.8382 106.83C29.8382 107.859 30.0395 108.877 30.4309 109.828C30.8224 110.778 31.3963 111.642 32.1198 112.369C32.8431 113.097 33.702 113.673 34.6473 114.067C35.5923 114.461 36.6055 114.663 37.6286 114.664C38.6518 114.664 39.6649 114.461 40.6102 114.067C41.5555 113.674 42.4144 113.097 43.1378 112.37L57.5244 97.9058C58.1058 97.4705 58.8233 97.2598 59.5464 97.3122C60.2694 97.3644 60.9494 97.6765 61.4628 98.191C62.0359 98.7643 62.3609 99.5416 62.3671 100.355C62.3731 101.167 62.0597 101.95 61.4949 102.531L50.9638 113.119C49.5027 114.588 48.6822 116.581 48.6822 118.658C48.6824 120.735 49.5034 122.727 50.9644 124.196C52.4257 125.665 54.4074 126.49 56.4737 126.49C58.5401 126.49 60.5216 125.665 61.9827 124.196L91.3373 94.6819C91.6186 94.3989 91.9525 94.1747 92.3202 94.0215C92.6877 93.8683 93.0817 93.7896 93.4796 93.7896C93.8775 93.7896 94.2713 93.8683 94.6391 94.0215C95.0066 94.1747 95.3407 94.3989 95.622 94.6819C95.9033 94.9647 96.1264 95.3005 96.2787 95.67C96.4311 96.0396 96.5094 96.4358 96.5094 96.8358C96.5094 97.2358 96.4311 97.6318 96.2787 98.0014C96.1264 98.3711 95.9033 98.7069 95.622 98.9897L93.8093 100.804C92.3482 102.274 91.5276 104.266 91.5279 106.343C91.5279 108.421 92.3489 110.413 93.8101 111.882C95.2712 113.351 97.2529 114.176 99.3194 114.176C101.386 114.176 103.367 113.35 104.828 111.881L117.14 99.5031C118.601 98.0344 119.422 96.042 119.422 93.9646C119.422 91.8873 118.602 89.8948 117.141 88.4259C115.68 86.9567 113.698 86.1314 111.632 86.1312C109.565 86.1312 107.584 86.9562 106.123 88.425L104.336 90.2275C103.768 90.7986 102.997 91.1195 102.193 91.1195C101.389 91.1193 100.618 90.7982 100.05 90.2266C99.4819 89.6552 99.163 88.8802 99.163 88.0723C99.1632 87.2641 99.4826 86.4893 100.051 85.9179L118.454 67.4252C119.915 65.9562 120.736 63.9638 120.736 61.8864C120.735 59.8089 119.914 57.8166 118.453 56.3479C116.992 54.8789 115.01 54.0538 112.944 54.0541C110.878 54.0543 108.896 54.8796 107.435 56.3485L70.2089 93.7676C69.6304 94.3353 68.8524 94.6509 68.044 94.6451C67.2356 94.6393 66.4621 94.3129 65.8918 93.7366C65.3801 93.2197 65.0703 92.5352 65.0188 91.8079C64.9672 91.0806 65.1775 90.3586 65.6111 89.7742L89.2899 65.9712C90.7195 64.4956 91.5135 62.5134 91.5 60.4534C91.4866 58.3936 90.6668 56.4219 89.218 54.9653C87.7691 53.5088 85.8081 52.6846 83.7592 52.6711C81.7103 52.6574 79.7387 53.4557 78.271 54.893L73.7913 59.3969C73.2155 59.738 72.5433 59.8777 71.8802 59.7939C71.217 59.7102 70.6001 59.408 70.1261 58.9344C69.5528 58.3611 69.2278 57.5837 69.2218 56.7708C69.2156 55.9579 69.5292 55.1756 70.0938 54.594L87.7563 36.8352C89.1859 35.3596 89.9799 33.3772 89.9665 31.3174C89.953 29.2574 89.1331 27.2857 87.6844 25.8292C86.2355 24.3726 84.2743 23.5484 82.2257 23.5349C80.1768 23.5214 78.2051 24.3198 76.7374 25.7571L47.3766 55.2708C46.8082 55.8422 46.0375 56.1631 45.2338 56.1628C44.4299 56.1626 43.6594 55.8415 43.091 55.2702C42.5228 54.6986 42.2037 53.9236 42.2039 53.1156C42.2041 52.3076 42.5235 51.5326 43.0919 50.9615L51.3379 42.6771C52.0832 41.9549 52.6777 41.0907 53.0869 40.1347C53.4961 39.1789 53.7118 38.1506 53.7212 37.1099C53.7308 36.0694 53.5338 35.0372 53.1421 34.074C52.7504 33.1107 52.1718 32.2356 51.4398 31.4997C50.708 30.7638 49.8375 30.182 48.8794 29.7881C47.9213 29.3943 46.8947 29.1964 45.8595 29.2061C44.8246 29.2155 43.8018 29.4324 42.851 29.8437C41.9003 30.2551 41.0406 30.8528 40.3223 31.6021L21.5816 50.4418C20.1206 51.9106 19.2995 53.903 19.2993 55.9804C19.2993 57.0089 19.5006 58.0276 19.8921 58.978C20.2836 59.9282 20.8575 60.7918 21.581 61.5191C22.3042 62.2467 23.1631 62.8236 24.1084 63.2172C25.0535 63.611 26.0666 63.8136 27.0898 63.8138C29.156 63.8138 31.1377 62.9887 32.599 61.52L34.3826 59.7267C34.9508 59.1553 35.7215 58.8342 36.5252 58.834C37.3289 58.8338 38.0999 59.1547 38.6683 59.7261C39.2366 60.2972 39.556 61.0723 39.5562 61.8802C39.5562 62.6882 39.2371 63.4632 38.6689 64.0346L20.2658 82.5275C18.8362 84.0031 18.0421 85.9855 18.0556 88.0453C18.0691 90.1051 18.8888 92.0768 20.3377 93.5334C21.7865 94.9899 23.7475 95.8141 25.7964 95.8278C27.8453 95.8413 29.817 95.043 31.2847 93.6057L61.3784 63.3547C61.957 62.787 62.735 62.4719 63.5436 62.4779C64.352 62.4841 65.1253 62.8108 65.6954 63.387C66.1667 63.8632 66.4679 64.483 66.5515 65.1495C66.6354 65.8159 66.4972 66.4914 66.1586 67.0705Z" fill="#FF5678"/>
</g>
<path d="M178.887 51.547L160.672 52.5278L156.889 61.9855L151.705 61.2849L153.316 47.4837H188.835L190.517 51.1967L165.156 90.5687L160.322 95.4027L181.9 94.0015L185.823 83.1427L191.147 84.1936L189.536 99.6761H151.005L148.833 95.9631L174.754 56.381L178.887 51.547ZM214.005 100.447C207.84 100.447 203.24 98.6486 200.204 95.0524C197.215 91.4094 195.72 86.4587 195.72 80.2003C195.72 75.9969 196.491 72.3539 198.032 69.2714C199.62 66.1889 201.838 63.8303 204.687 62.1957C207.536 60.561 210.829 59.7437 214.565 59.7437C219.236 59.7437 222.832 60.9814 225.354 63.4567C227.876 65.8853 229.184 69.3648 229.277 73.8952C229.277 76.9777 229.091 79.2662 228.717 80.7608H205.948C206.135 85.0109 207.139 88.3269 208.961 90.7089C210.782 93.0441 213.374 94.2117 216.737 94.2117C218.559 94.2117 220.427 93.9081 222.342 93.301C224.303 92.6938 225.845 91.9699 226.966 91.1292L228.717 94.9823C227.456 96.3368 225.401 97.5978 222.552 98.7654C219.75 99.8863 216.901 100.447 214.005 100.447ZM219.469 76.5574C219.563 75.2496 219.61 74.2455 219.61 73.5449C219.61 67.3332 217.531 64.2273 213.374 64.2273C211.086 64.2273 209.311 65.1381 208.05 66.9596C206.789 68.781 206.089 71.9803 205.948 76.5574H219.469ZM231.716 43.7707L244.536 42.2295H244.676L246.638 43.5605V64.2273C247.899 62.9663 249.44 61.9155 251.262 61.0748C253.13 60.1874 255.138 59.7437 257.286 59.7437C261.77 59.7437 265.413 61.3316 268.215 64.5076C271.064 67.6368 272.489 72.4473 272.489 78.9393C272.489 82.9559 271.648 86.5989 269.967 89.8682C268.285 93.1375 265.857 95.7296 262.681 97.6445C259.552 99.5127 255.909 100.447 251.752 100.447C248.062 100.447 244.863 100.143 242.154 99.536C239.445 98.8822 237.717 98.2984 236.97 97.7846V48.2544L231.716 47.4137V43.7707ZM253.573 65.9087C252.172 65.9087 250.841 66.2356 249.58 66.8895C248.366 67.4967 247.385 68.1972 246.638 68.9912V94.562C246.918 95.0757 247.572 95.4961 248.599 95.823C249.627 96.1499 250.795 96.3134 252.102 96.3134C255.091 96.3134 257.473 94.9356 259.248 92.1801C261.07 89.3778 261.98 85.2444 261.98 79.78C261.98 75.0628 261.21 71.5833 259.668 69.3415C258.127 67.053 256.096 65.9087 253.573 65.9087ZM275.022 43.7707L287.843 42.2295H287.983L289.944 43.5605V64.2273C291.206 62.9663 292.747 61.9155 294.568 61.0748C296.436 60.1874 298.445 59.7437 300.593 59.7437C305.077 59.7437 308.72 61.3316 311.522 64.5076C314.371 67.6368 315.796 72.4473 315.796 78.9393C315.796 82.9559 314.955 86.5989 313.273 89.8682C311.592 93.1375 309.163 95.7296 305.988 97.6445C302.858 99.5127 299.215 100.447 295.059 100.447C291.369 100.447 288.17 100.143 285.461 99.536C282.752 98.8822 281.024 98.2984 280.277 97.7846V48.2544L275.022 47.4137V43.7707ZM296.88 65.9087C295.479 65.9087 294.148 66.2356 292.887 66.8895C291.673 67.4967 290.692 68.1972 289.944 68.9912V94.562C290.225 95.0757 290.879 95.4961 291.906 95.823C292.934 96.1499 294.101 96.3134 295.409 96.3134C298.398 96.3134 300.78 94.9356 302.555 92.1801C304.376 89.3778 305.287 85.2444 305.287 79.78C305.287 75.0628 304.516 71.5833 302.975 69.3415C301.434 67.053 299.402 65.9087 296.88 65.9087Z" fill="#FF5678"/>
<defs>
<clipPath id="clip0_56_5124">
<rect width="137.283" height="149.352" fill="white"/>
</clipPath>
</defs>
</svg>
